<?xml version="1.0" encoding="utf-8"?>
<!-- Generator: Adobe Illustrator 16.0.0, SVG Export Plug-In . SVG Version: 6.00 Build 0)  -->
<!DOCTYPE svg PUBLIC "-//W3C//DTD SVG 1.1//EN" "http://www.w3.org/Graphics/SVG/1.1/DTD/svg11.dtd">
<svg version="1.1" id="Capa_1" xmlns="http://www.w3.org/2000/svg" xmlns:xlink="http://www.w3.org/1999/xlink" x="0px" y="0px"
	 width="473.38px" height="134.878px" viewBox="0 0 473.38 134.878" enable-background="new 0 0 473.38 134.878"
	 xml:space="preserve">
<g>
	<path fill="#FFFFFF" d="M101.086,56.281v42.307H83.613V57.531c0-9.111-4.743-13.853-12.855-13.853c-3.992,0-8.112,0.75-12.104,3.12
		c0.375,1.747,0.625,3.618,0.625,5.738v46.052H41.807V57.531c0-9.111-4.742-13.853-12.854-13.853c-3.993,0-7.737,0.875-11.48,3.243
		v51.668H0V30.572c5.741,0,11.481,1.375,15.724,3.87c6.115-2.87,12.854-4.492,18.97-4.492c7.611,0,13.727,2.121,17.969,5.863
		c5.492-3.992,12.606-5.863,21.466-5.863C90.603,29.95,101.086,38.309,101.086,56.281z"/>
	<path fill="#FFFFFF" d="M105.202,64.892c0-20.968,14.476-34.942,36.191-34.942c21.465,0,36.066,13.974,36.066,34.942
		c0,20.964-14.601,34.942-36.066,34.942C119.678,99.834,105.202,85.856,105.202,64.892z M159.363,64.892
		c0-12.728-7.363-21.214-18.095-21.214c-10.856,0-17.971,8.487-17.971,21.214c0,12.731,7.115,21.215,17.971,21.215
		C152,86.107,159.363,77.624,159.363,64.892z"/>
	<path fill="#FFFFFF" d="M207.659,99.834h-0.998c-13.105-22.586-24.586-44.553-35.442-68.638h18.844
		c4.494,12.728,10.359,25.834,17.222,38.812c6.489-12.978,12.48-26.084,17.098-38.812h18.719
		C232.245,55.282,220.638,77.249,207.659,99.834z"/>
	<path fill="#FFFFFF" d="M245.195,10.357C245.195,4.366,249.563,0,255.552,0c5.993,0,10.483,4.366,10.483,10.357
		s-4.491,10.357-10.483,10.357C249.563,20.714,245.195,16.348,245.195,10.357z M264.291,98.588h-17.474V31.197h17.474V98.588z"/>
	<path fill="#FFFFFF" d="M332.876,100.469c-1.46-2.391-2.689-3.874-4.787-5.573c-2.099-1.7-5.451-3.354-8.379-3.953
		c-2.924-0.595-5.849-1.046-8.92-1.345c-3.072-0.296-5.851-0.296-8.779-0.446c-2.923,0-5.411-0.3-7.75-0.6
		c-2.339-0.299-4.095-0.746-5.558-1.491c-1.462-0.747-2.048-1.944-2.048-3.438c0-1.795,1.172-3.287,3.512-4.78
		c2.633,0.595,5.555,0.747,8.337,0.747c4.241,0,8.045-0.599,11.554-1.796c3.511-1.197,6.729-2.838,9.362-4.929
		c2.634-2.091,4.681-4.784,6.146-7.77c1.46-2.989,2.191-6.576,2.191-10.311c0-1.644-0.146-2.989-0.437-4.485
		c-0.295-1.493-0.588-2.838-1.026-4.186c0,0-0.661-1.367-1.66-3.074h0.072l0.982-1.306c1.864-3.169,2.893-7.463,2.893-11.754
		h-29.543v0.016c-0.178-0.003-0.354-0.016-0.534-0.016c-4.242,0-8.337,0.595-11.995,1.792c-3.656,1.194-6.731,2.841-9.361,4.932
		c-2.632,2.091-4.828,4.781-6.288,7.77c-1.463,2.989-2.195,6.576-2.195,10.312c0,4.633,1.024,8.815,3.219,12.25
		c2.191,3.44,5.264,6.278,9.068,8.369c-1.611,0.896-3.218,1.791-4.388,2.841c-1.172,1.045-2.195,2.238-3.073,3.436
		c-0.877,1.193-1.316,2.391-1.755,3.587c-0.438,1.193-0.586,2.391-0.586,3.584c0,2.842,0.586,5.08,1.755,6.875
		c1.17,1.793,2.486,3.14,4.387,4.183c-2.855,1.871-3.622,2.788-5.274,5.17c-1.851,2.666-3.034,6.036-3.034,9.626
		c0,2.687,0.37,5.228,1.686,7.619c1.316,2.391,3.366,4.632,6.143,6.424c2.779,1.793,4.988,3.289,9.232,4.481
		c4.239,1.2,8.057,1.648,13.76,1.648c5.707,0,9.669-0.747,14.205-2.243c4.534-1.492,8.588-3.188,11.658-5.728
		c3.074-2.541,5.162-4.471,6.773-7.612c1.607-3.137,2.485-6.424,2.485-9.86C334.924,105.849,334.339,102.862,332.876,100.469z
		 M288.409,46.266c2.196-2.243,5.708-3.285,10.094-3.285c0.182,0,0.354,0.013,0.534,0.017v0.043h1.179
		c3.557,0.246,6.334,1.285,8.233,3.226c2.193,2.242,3.364,5.23,3.364,8.966c0,1.795-0.292,3.587-0.878,5.084
		c-0.585,1.492-1.315,2.985-2.486,4.031c-1.024,1.048-2.489,1.944-4.097,2.542c-1.608,0.598-3.654,0.895-5.849,0.895
		c-2.195,0-4.098-0.297-5.854-0.895c-1.754-0.598-3.068-1.493-4.24-2.69c-1.168-1.196-1.901-2.39-2.486-3.882
		c-0.585-1.497-0.73-3.289-0.73-5.084C285.192,51.497,286.214,48.508,288.409,46.266z M317.225,115.601
		c-0.731,1.195-1.901,2.393-3.51,3.287c-1.608,0.898-3.51,1.493-5.998,2.091c-2.487,0.6-5.412,0.898-8.778,0.898
		c-2.389,0-2.692-0.053-5.03-0.504c-2.341-0.45-4.077-1.288-5.541-2.186s-2.571-1.857-3.158-3.055
		c-0.584-1.197-1.152-2.474-1.152-3.817c0-2.095,0.049-2.739,0.788-4.492c0.949-2.235,3.391-3.79,3.391-3.79s3.941-0.237,6.316-0.29
		c2.345-0.052,4.683-0.1,7.021,0.053c2.341,0.148,4.386,0.299,6.435,0.599c2.048,0.295,3.951,0.599,5.416,1.193
		c1.461,0.598,2.63,1.345,3.508,2.243c0.878,0.894,1.315,2.091,1.315,3.583C318.247,112.911,317.958,114.407,317.225,115.601z"/>
	<g>
		<path fill="#2A3783" d="M406.943,44.184c1.662-0.075,3.46-0.223,5.361-0.404c1.906-0.131,3.891-0.447,5.962-0.648
			c2.042-0.302,4.196-0.529,6.305-0.95c2.124-0.342,4.296-0.868,6.301-1.329c2.296-0.631,4.218-1.131,6.305-1.805
			c2.044-0.645,4.056-1.318,5.978-2.055c3.84-1.48,7.285-3.269,10.123-5.034c0.046-0.029,0.085-0.052,0.129-0.083
			c-4.79-2.044-10.289-3.146-16.328-3.146c-14.009,0-25.019,5.797-31.119,15.513C406.291,44.224,406.601,44.204,406.943,44.184z"/>
		<path fill="#2A3783" d="M456.992,33.666c-0.409,0.438-0.834,0.885-1.289,1.332c-2.547,2.505-5.79,5.225-9.591,7.694
			c-0.66,0.444-1.368,0.855-2.066,1.272c6.818,2.917,11.128,10.18,11.128,19.938c0,12.807-7.418,21.346-18.217,21.346
			c-10.926,0-18.083-8.539-18.083-21.346c0-4.508,0.902-8.473,2.527-11.735c-0.542,0.115-1.077,0.23-1.613,0.349
			c-2.182,0.395-4.3,0.79-6.313,1.045c-2.011,0.296-3.919,0.546-5.688,0.72c-1.749,0.217-3.399,0.322-4.882,0.408
			c-0.435,0.03-0.847,0.059-1.247,0.082c-0.65,2.864-0.992,5.916-0.992,9.131c0,21.1,14.569,35.163,36.412,35.163
			c21.61,0,36.302-14.063,36.302-35.163C473.38,50.234,467.208,39.521,456.992,33.666z"/>
	</g>
	<path fill="#2A3783" d="M396.961,94.896c-2.097-1.7-5.451-3.354-8.376-3.953c-2.926-0.595-5.854-1.046-8.925-1.345
		c-3.069-0.296-5.849-0.296-8.777-0.446c-2.924,0-5.41-0.3-7.749-0.6c-2.341-0.299-4.096-0.746-5.561-1.491
		c-1.461-0.747-2.047-1.944-2.047-3.438c0-1.795,1.173-3.287,3.512-4.78c2.634,0.595,5.558,0.747,8.336,0.747
		c4.24,0,8.047-0.599,11.557-1.796c3.509-1.197,6.729-2.838,9.362-4.929c2.632-2.091,4.679-4.784,6.145-7.77
		c1.431-2.926,2.15-6.431,2.18-10.081c-0.49,0.045-0.977,0.088-1.46,0.108c-4.656,0.23-9.311,0.358-12.796,0.365
		c-0.605,0.003-1.159,0-1.688-0.007c-0.024,1.71-0.309,3.406-0.863,4.834c-0.588,1.492-1.317,2.985-2.487,4.031
		c-1.024,1.048-2.488,1.944-4.096,2.542c-1.612,0.598-3.656,0.895-5.853,0.895c-2.193,0-4.094-0.297-5.852-0.895
		c-1.754-0.598-3.069-1.493-4.241-2.69c-1.169-1.196-1.9-2.39-2.486-3.882c-0.586-1.497-0.73-3.289-0.73-5.084
		c0-3.735,1.021-6.724,3.217-8.966c2.194-2.243,5.707-3.285,10.093-3.285l26.25,0.003l0.936-1.25
		c1.868-3.169,2.895-7.463,2.895-11.754H367.91v0.016c-0.178-0.003-0.356-0.016-0.536-0.016c-4.24,0-8.336,0.595-11.993,1.792
		c-3.654,1.194-6.729,2.841-9.361,4.932c-2.632,2.091-4.829,4.781-6.288,7.77c-1.464,2.989-2.195,6.576-2.195,10.312
		c0,4.633,1.022,8.815,3.218,12.25c2.193,3.44,5.266,6.278,9.068,8.369c-1.607,0.896-3.216,1.791-4.386,2.841
		c-1.173,1.045-2.197,2.238-3.073,3.436c-0.877,1.193-1.317,2.391-1.754,3.587c-0.439,1.193-0.589,2.391-0.589,3.584
		c0,2.842,0.589,5.08,1.758,6.875c1.169,1.793,2.485,3.14,4.388,4.183c-2.857,1.871-3.624,2.788-5.277,5.17
		c-1.852,2.666-3.035,6.036-3.035,9.626c0,2.687,0.372,5.228,1.688,7.619c1.316,2.391,3.365,4.632,6.141,6.424
		c2.781,1.793,4.991,3.289,9.232,4.481c4.24,1.2,8.058,1.648,13.761,1.648c5.708,0,9.67-0.747,14.203-2.243
		c4.536-1.492,8.589-3.188,11.66-5.728c3.071-2.541,5.159-4.471,6.771-7.612c1.607-3.137,2.485-6.424,2.485-9.86
		c0-3.586-0.583-6.573-2.048-8.966C400.286,98.079,399.06,96.595,396.961,94.896z M386.098,115.601
		c-0.731,1.195-1.903,2.393-3.511,3.287c-1.607,0.898-3.512,1.493-5.996,2.091c-2.488,0.6-5.412,0.898-8.778,0.898
		c-2.389,0-2.691-0.053-5.032-0.504c-2.34-0.45-4.077-1.288-5.539-2.186c-1.464-0.897-2.57-1.857-3.156-3.055
		c-0.587-1.197-1.152-2.474-1.152-3.817c0-2.095,0.048-2.739,0.786-4.492c0.946-2.235,3.39-3.79,3.39-3.79s3.942-0.237,6.317-0.29
		c2.343-0.052,4.682-0.1,7.021,0.053c2.34,0.148,4.388,0.299,6.435,0.599c2.05,0.295,3.951,0.599,5.414,1.193
		c1.464,0.598,2.634,1.345,3.508,2.243c0.878,0.894,1.317,2.091,1.317,3.583C387.12,112.911,386.829,114.407,386.098,115.601z"/>
	<path fill="#FFFFFF" d="M467.957,26.452c-0.17-1.091-0.44-2.137-0.765-3.153c-0.329-1.016-0.731-1.999-1.196-2.946l-1.211-2.472
		l-2.733,0.095c-1.19,0.04-2.376,0.155-3.561,0.339c-1.182,0.194-2.363,0.453-3.545,0.809c-1.174,0.365-2.35,0.799-3.522,1.365
		c-0.585,0.292-1.17,0.588-1.752,0.963c-0.584,0.358-1.166,0.737-1.744,1.223c0.608,0.45,1.215,0.789,1.819,1.107
		c0.605,0.335,1.21,0.592,1.813,0.846c1.207,0.486,2.407,0.844,3.607,1.127c1.198,0.28,2.395,0.464,3.589,0.575
		c0.314,0.03,0.628,0.04,0.939,0.06c0.093,0.142,0.175,0.29,0.267,0.428c0.602,0.881,1.26,1.739,2.011,2.551
		c0.369,0.405,0.764,0.8,1.185,1.184c0.415,0.388,0.862,0.757,1.326,1.119c0.476,0.354,0.956,0.71,1.509,1.029
		c0.539,0.325,1.093,0.644,1.749,0.914c0.193-0.685,0.286-1.315,0.362-1.94c0.089-0.632,0.104-1.227,0.118-1.825
		c0.003-0.585-0.013-1.167-0.06-1.73C468.117,27.55,468.051,26.995,467.957,26.452z"/>
</g>
</svg>
